<?xml version="1.0" encoding="utf-8"?>
<!-- Generator: Adobe Illustrator 19.1.0, SVG Export Plug-In . SVG Version: 6.00 Build 0)  -->
<svg version="1.1" id="Ebene_1" xmlns="http://www.w3.org/2000/svg" xmlns:xlink="http://www.w3.org/1999/xlink" x="0px" y="0px"
	 viewBox="-282 205.8 73.7 71.2" style="enable-background:new -282 205.8 73.7 71.2;" xml:space="preserve">
<style type="text/css">
	.st0{fill:#FFFFFF; position:relative;}
</style>
<path id="palm" class="st0" d="M-246.7,241.2c-8.8,0-17.6,10.7-20.8,19.2c-3.2,8.5-2.1,16.6,5.3,16.6c2.2,0,5-0.8,7.8-1.6
	c2.8-0.8,5.6-1.6,7.7-1.6c4.3,0,11.1,3.2,15.5,3.2C-216.4,277-228.9,241.2-246.7,241.2z"/>
<path id="toe3" class="st0" d="M-226.8,236.3c-3.7,6.3,1.3,16.1,1.3,16.1s10.9-0.5,14.6-6.9c3.7-6.4,3.1-13.5-1.3-16.1
	C-216.6,226.8-223.1,230-226.8,236.3z"/>
<path id="toe2" class="st0" d="M-241.3,218.4c-2.8,7.8,3.8,17.2,3.8,17.2s11-3.2,13.8-10.9c2.8-7.7,1.1-15.5-3.8-17.2
	C-232.4,205.8-238.6,210.7-241.3,218.4z"/>
<path id="toe1" class="st0" d="M-246.4,219.3c1,8-7.3,15.7-7.3,15.7s-9.9-5.4-10.9-13.4s2.3-15.1,7.3-15.7
	C-252.3,205.3-247.4,211.2-246.4,219.3z"/>
<path id="toe0" class="st0" d="M-263.6,235.1c2.6,6.8-3.8,15.7-3.8,15.7s-10.7-2.2-13.4-9.1c-2.7-6.9-0.9-13.8,3.8-15.7
	C-272.3,224.1-266.3,228.3-263.6,235.1z"/>
</svg>
